# xmcd
#
# Track frame offsets:
#	150
#	21586
#	47080
#	71345
#	92979
#	116114
#	138552
#	160468
#	182399
#	204295
#	226979
#
# Disc length: 3374 seconds
#
# Revision: 1
# Processed by: cddbd v1.5.2PL0 Copyright (c) Steve Scherf et al.
# Submitted via: EasyCDDAExtractor 16.0.9.1
#
DISCID=980d2c0b
DTITLE=Various Artist - Tinh Khuc Le Dinh - Hue Buon [TNCD311]
DYEAR=2003
DGENRE=Country
TTITLE0=Nhu Quynh - Hue Buon
TTITLE1=Hoang Oanh - Tinh Yeu Tra Lai Trang Sao
TTITLE2=Truong Vu - Tam Anh Ngay Xua
TTITLE3=Phi Nhung - Chieu Len Ban Thuong
TTITLE4=The Son - Neu Mai Nay
TTITLE5=Phuong Diem Hanh - Neu Anh Dung Hen
TTITLE6=Manh Quynh - Chu Tinh
TTITLE7=BaoHan TrucLam TrucLinh - Duong Ve Khuya
TTITLE8=Ha Vy - Lien Khuc Canh Thiep Hong and Ngang Trai
TTITLE9=PhuongDiemHanh and ManhQuynh - Tuyet Lanh
TTITLE10=Hop Ca - Lien Khuc Thu Ca
EXTD=
EXTT0=
EXTT1=
EXTT2=
EXTT3=
EXTT4=
EXTT5=
EXTT6=
EXTT7=
EXTT8=
EXTT9=
EXTT10=
PLAYORDER=
